<svg width="20" height="20" viewBox="0 0 20 20" fill="none" xmlns="http://www.w3.org/2000/svg">
<path d="M9.59961 18.6002L7.79961 13.2002H0.599609L2.39961 18.6002H9.59961ZM9.59961 18.6002H13.1996" stroke="#474A53" stroke-width="1.2" stroke-linecap="round" stroke-linejoin="round"/>
<path d="M9.60039 10.5002V10.0502C9.60039 8.35316 9.60039 7.50461 9.07317 6.97741C8.54595 6.4502 7.69745 6.4502 6.00039 6.4502C4.30333 6.4502 3.4548 6.4502 2.9276 6.97741C2.40039 7.50461 2.40039 8.35316 2.40039 10.0502V10.5002" stroke="#474A53" stroke-width="1.2" stroke-linecap="round" stroke-linejoin="round"/>
<path d="M15.8988 10.5002C15.8988 11.4943 15.093 12.3002 14.0988 12.3002C13.1047 12.3002 12.2988 11.4943 12.2988 10.5002C12.2988 9.50606 13.1047 8.7002 14.0988 8.7002C15.093 8.7002 15.8988 9.50606 15.8988 10.5002Z" stroke="#474A53" stroke-width="1.2" stroke-linecap="round" stroke-linejoin="round"/>
<path d="M7.79922 2.4001C7.79922 3.39421 6.99333 4.2001 5.99922 4.2001C5.00511 4.2001 4.19922 3.39421 4.19922 2.4001C4.19922 1.40598 5.00511 0.600098 5.99922 0.600098C6.99333 0.600098 7.79922 1.40598 7.79922 2.4001Z" stroke="#474A53" stroke-width="1.2" stroke-linecap="round" stroke-linejoin="round"/>
<path d="M11.4004 14.55H16.8004C17.7945 14.55 18.6004 15.3559 18.6004 16.35V16.8C18.6004 17.7942 17.7945 18.6 16.8004 18.6H15.9004" stroke="#474A53" stroke-width="1.2" stroke-linecap="round" stroke-linejoin="round"/>
</svg>
