<?xml version="1.0" encoding="UTF-8"?>
<svg version="1.1" xmlns="http://www.w3.org/2000/svg" width="2841" height="2819">
<path d="M0 0 C7.89567332 0.00653416 15.7913292 0.00112036 23.6870017 -0.00440762 C39.14942529 -0.01485321 54.6118322 -0.01406102 70.07425732 -0.0082498 C83.60623736 -0.00318995 97.13821133 -0.00191855 110.67019212 -0.00429508 C112.02414349 -0.00452424 112.02414349 -0.00452424 113.40544741 -0.00475802 C117.07084338 -0.00538084 120.73623935 -0.00601766 124.40163531 -0.00667755 C158.68412483 -0.01277566 192.96660381 -0.00728025 227.2490917 0.00351624 C257.61307217 0.01300604 287.97703585 0.0121552 318.34101617 0.00259426 C352.56807796 -0.00814743 386.79513047 -0.01234374 421.02219372 -0.00618121 C424.68004703 -0.00553991 428.33790033 -0.00491422 431.99575364 -0.00429508 C433.34643505 -0.00405785 433.34643505 -0.00405785 434.72440296 -0.00381583 C448.23848679 -0.0015543 461.75256385 -0.00417616 475.26664674 -0.00925419 C490.65363169 -0.01500765 506.04059756 -0.01346933 521.42758018 -0.0026927 C529.26022497 0.0026142 537.09283868 0.00490277 544.9254831 -0.00199101 C628.62766984 -0.07083493 708.77531519 6.4864854 948.01752984 127.81900051 C950.49695602 129.86707162 953.00978545 131.87327335 955.51606499 133.88833645 C960.43308294 137.91067895 965.0999229 142.16172716 969.74653374 146.48989895 C971.86784564 148.46289205 974.04382621 150.35142861 976.25043999 152.2281802 C982.08220174 157.31118107 987.48979238 162.83813972 992.94794976 168.31485012 C994.82435975 170.19661919 996.70605469 172.07298383 998.58833062 173.94888332 C1004.52770352 179.88461696 1010.35155378 185.83830999 1015.76606499 192.26333645 C1016.81058222 193.4555105 1017.85746756 194.64561382 1018.90668999 195.83364895 C1026.15296791 204.09882676 1033.08801865 212.53416044 1039.76606499 221.26333645 C1040.31987847 221.9805386 1040.87369195 222.69774074 1041.44428765 223.43667629 C1077.37198909 270.03519105 1105.76555749 321.96811761 1125.76606499 377.26333645 C1126.00154046 377.91177517 1126.23701592 378.56021389 1126.47962701 379.22830227 C1140.40147315 417.6784332 1149.63676207 457.62085788 1155.01606499 498.13833645 C1155.16736871 499.27601467 1155.31867242 500.41369289 1155.47456109 501.58584621 C1158.16172245 523.23950865 1159.06917964 544.84159302 1159.02920146 566.64771561 C1159.02494828 570.20960814 1159.0324789 573.77148198 1159.03835397 577.33336958 C1159.04703408 583.54794018 1159.04845768 589.76247781 1159.0448507 595.97705295 C1159.03950076 605.21946534 1159.04568174 614.4618463 1159.05393363 623.70425527 C1159.06910938 641.1796421 1159.0708853 658.65501436 1159.06841061 676.1304064 C1159.06657206 689.6344458 1159.06834929 703.13848046 1159.07263505 716.64251926 C1159.07323747 718.58832681 1159.07383867 720.53413435 1159.07443865 722.47994189 C1159.07534599 725.41275183 1159.07625466 728.34556177 1159.077171 731.2783717 C1159.08559106 758.51897295 1159.08994285 785.75957242 1159.08576428 813.00017479 C1159.08560791 814.02539505 1159.08545153 815.05061531 1159.08529042 816.10690285 C1159.08448473 821.30213062 1159.08363896 826.49735838 1159.08277711 831.69258614 C1159.08260603 832.72421823 1159.08243494 833.75585031 1159.08225867 834.81874397 C1159.08191201 836.9049515 1159.08156348 838.99115903 1159.08121308 841.07736656 C1159.07585894 873.52030803 1159.08378146 905.96322231 1159.10224664 938.40615871 C1159.12300981 974.92865341 1159.13368105 1011.45113126 1159.12967115 1047.97363218 C1159.12927586 1051.87569204 1159.1289143 1055.77775189 1159.12857377 1059.67981174 C1159.12843767 1061.1207918 1159.12843767 1061.1207918 1159.12829882 1062.59088257 C1159.12713777 1077.02910591 1159.13374351 1091.46731213 1159.14438569 1105.9055312 C1159.15649294 1122.3473049 1159.15793359 1138.78904112 1159.14559552 1155.23081543 C1159.13959041 1163.6057832 1159.13821275 1171.98068381 1159.15059792 1180.3556464 C1159.24252871 1246.03447707 1159.24252871 1246.03447707 1155.76606499 1273.26333645 C1155.676877 1273.96711254 1155.58768901 1274.67088864 1155.49579836 1275.39599128 C1148.48688538 1330.50429584 1134.26054395 1384.41339243 1111.76606499 1435.26333645 C1111.24931206 1436.43299953 1110.73255914 1437.60266262 1110.20014703 1438.80777004 C1091.3185743 1481.19106025 1067.37691639 1520.75494426 1038.76606499 1557.26333645 C1038.09961968 1558.1141177 1037.43317437 1558.96489895 1036.74653374 1559.84146145 C1029.17244716 1569.40548117 1021.27944043 1578.71663513 1013.06098687 1587.73281887 C1011.64073414 1589.29887414 1010.22848154 1590.87227694 1008.82929742 1592.4571841 C1002.92609491 1599.12726791 996.72545745 1605.45779248 990.4181646 1611.74160793 C988.6989783 1613.45540878 986.98523916 1615.17452727 985.27192437 1616.89419582 C979.60489548 1622.56501215 973.889494 1628.08145332 967.76606499 1633.26333645 C966.57407059 1634.30805867 965.38395767 1635.35493159 964.19575249 1636.40396145 C955.93057468 1643.65023937 947.495241 1650.5852901 938.76606499 1657.26333645 C937.69026177 1658.09405666 937.69026177 1658.09405666 936.59272515 1658.9415591 C846.2353148 1728.60760057 734.73883829 1770.70595319 567.94880425 1777.39032009 C565.26759748 1777.39147579 562.58639348 1777.39302604 559.90518748 1777.39504733 C554.13295545 1777.39861714 548.36073281 1777.39857573 542.58850037 1777.39600017 C534.00424368 1777.39218052 525.41999476 1777.39417047 516.8357381 1777.39720848 C501.49449732 1777.40244665 486.15326073 1777.4020289 470.81201956 1777.39912957 C457.38589872 1777.39660492 443.95977941 1777.39596153 430.53365838 1777.39715221 C429.19303209 1777.39726679 429.19303209 1777.39726679 427.82532245 1777.39738368 C424.19646519 1777.39769507 420.56760793 1777.39801347 416.93875068 1777.39834345 C382.96062319 1777.40139618 348.98249836 1777.39863895 315.00437129 1777.39324655 C284.87724563 1777.38850165 254.75012421 1777.3889263 224.62299859 1777.39370754 C190.70338552 1777.39907278 156.7837748 1777.4011796 122.86416137 1777.39809528 C119.24226478 1777.3977746 115.6203682 1777.39746176 111.99847161 1777.39715221 C111.1067968 1777.39707314 110.215122 1777.39699406 109.29642674 1777.39691259 C95.88522824 1777.39577948 82.47403145 1777.39709719 69.06283318 1777.39963177 C53.7997335 1777.40250211 38.53663863 1777.40175271 23.27353954 1777.39635102 C14.75206942 1777.39343397 6.23060975 1777.39319494 -2.29086007 1777.3969972 C-8.00577957 1777.39926397 -13.72069081 1777.39780076 -19.4356091 1777.39349243 C-22.67625759 1777.39114745 -25.91688195 1777.39079856 -29.15753037 1777.39389841 C-52.02925638 1777.41407554 -74.95322726 1777.16301877 -97.73393501 1774.95083645 C-98.41184089 1774.88642361 -99.08974677 1774.82201076 -99.78819526 1774.75564602 C-161.9362682 1768.8207495 -223.4858153 1753.53545224 -280.23393501 1727.26333645 C-281.29950629 1726.77123684 -282.36507758 1726.27913723 -283.46293891 1725.77212551 C-290.77234213 1722.37338016 -298.0201359 1718.86022502 -305.23393501 1715.26333645 C-306.69307319 1714.5367886 -306.69307319 1714.5367886 -308.18168891 1713.79556301 C-334.57132886 1700.56317614 -359.43780804 1684.7051488 -383.23393501 1667.26333645 C-383.875727 1666.79427883 -384.51751899 1666.32522121 -385.17875922 1665.84194973 C-393.4459222 1659.78096222 -401.46692622 1653.52834622 -409.23002876 1646.83364895 C-411.98088183 1644.4798631 -414.77973976 1642.20919259 -417.60893501 1639.95083645 C-424.12413951 1634.64424959 -430.18122002 1628.86992165 -436.28129829 1623.09829739 C-438.20915442 1621.28662363 -440.15351104 1619.49478381 -442.10502876 1617.70864895 C-449.6878918 1610.75301992 -456.84240529 1603.57820074 -463.72172797 1595.92837551 C-465.31321141 1594.17604793 -466.9278756 1592.44793778 -468.55034126 1590.72427395 C-475.0800628 1583.78632669 -481.27924066 1576.70670438 -487.23393501 1569.26333645 C-488.22687721 1568.05998506 -489.2218001 1566.85826629 -490.21831001 1565.6578677 C-516.95851506 1533.34560292 -539.81913635 1497.22395132 -558.14164985 1459.50112942 C-559.33212433 1457.06217343 -560.54319575 1454.63393175 -561.75346626 1452.2047427 C-601.00182731 1372.68266427 -617.42475404 1284.81566866 -617.36764777 1196.60655239 C-617.36896958 1193.84506809 -617.37178191 1191.08358573 -617.3745131 1188.32210252 C-617.37962948 1182.34954891 -617.3810909 1176.3770034 -617.38005698 1170.40444782 C-617.37852314 1161.52191842 -617.38271347 1152.63939789 -617.38793161 1143.75687022 C-617.39757292 1126.9622946 -617.40041466 1110.16772204 -617.40098867 1093.37314398 C-617.40144934 1080.39430754 -617.40351357 1067.41547229 -617.40668929 1054.43663624 C-617.40758693 1050.69194906 -617.40847675 1046.94726188 -617.40936417 1043.2025747 C-617.40958522 1042.27145383 -617.40980627 1041.34033296 -617.41003401 1040.38099631 C-617.41618339 1014.20996501 -617.42013508 988.03893412 -617.41969074 961.86790207 C-617.41967516 960.88235536 -617.41965958 959.89680866 -617.41964353 958.8813969 C-617.41956043 953.88699163 -617.41946139 948.89258636 -617.41935882 943.89818109 C-617.41933887 942.90639488 -617.41931893 941.91460867 -617.41929838 940.89276834 C-617.41925794 938.88713545 -617.41921614 936.88150256 -617.41917299 934.87586967 C-617.41856072 903.69601995 -617.42605994 872.51618111 -617.43974555 841.33633449 C-617.45513992 806.2495428 -617.46370973 771.16275827 -617.46278233 736.07596299 C-617.46270771 732.3271892 -617.462659 728.5784154 -617.46262801 724.82964161 C-617.46261636 723.9067026 -617.46260471 722.9837636 -617.4625927 722.03285674 C-617.46256205 707.24496432 -617.46892051 692.45708144 -617.47756028 677.66919185 C-617.48607922 662.77901968 -617.48699378 647.88886131 -617.48045096 632.99868805 C-617.47710328 624.94806492 -617.47685825 616.89747322 -617.48580421 608.84685352 C-617.55209478 546.23750487 -617.55209478 546.23750487 -615.23393501 520.26333645 C-615.15674401 519.36199651 -615.07955301 518.46065658 -615.0000229 517.53200331 C-614.59712743 512.86764659 -614.11777847 508.22347174 -613.54643501 503.57583645 C-613.46534492 502.9038522 -613.38425483 502.23186794 -613.30070747 501.53952053 C-606.06131089 442.16998963 -589.33401188 384.51304062 -564.23393501 330.26333645 C-563.4549372 328.55255918 -562.67626543 326.84163338 -561.89799751 325.13052395 C-537.56060439 272.15930406 -502.84230183 223.82641103 -463.23393501 181.26333645 C-462.04899812 179.98472866 -460.86410444 178.70608083 -459.67924751 177.42739895 C-458.44778361 176.10159295 -457.2160163 174.77606871 -455.98393501 173.45083645 C-455.13436225 172.53540066 -455.13436225 172.53540066 -454.26762641 171.60147121 C-448.64414992 165.57210074 -442.90682849 159.78274479 -436.65581001 154.40396145 C-434.138307 152.17881363 -431.68753151 149.8938114 -429.23857368 147.59390285 C-422.77721275 141.52926931 -416.15620694 135.80115399 -409.23393501 130.26333645 C-408.03058362 129.27039424 -406.82886485 128.27547135 -405.62846626 127.27896145 C-375.9857179 102.74793044 -343.24358168 82.16016967 -309.23393501 64.26333645 C-308.24184028 63.74126614 -307.24974555 63.21919582 -306.22758735 62.6813052 C-230.26865375 23.03168245 -145.82725664 3.15691316 0 0 Z " fill="#0437D1" transform="translate(1149.2339350054972,520.7366635520011)"/>
<path d="M0 0 C54.27651445 -0.08851578 108.5529597 -0.16224254 162.8295259 -0.20426132 C169.26672182 -0.20926294 175.70391759 -0.21444035 182.14111328 -0.21972656 C183.42240934 -0.2207758 184.70370539 -0.22182505 186.0238286 -0.22290608 C206.6525086 -0.24021594 227.28114308 -0.27170042 247.90979627 -0.30861118 C269.14523756 -0.34628505 290.38065535 -0.36829107 311.61612868 -0.37635398 C323.51486296 -0.38130534 335.41350226 -0.39311893 347.31220245 -0.42292023 C460.74182028 -0.69861577 460.74182028 -0.69861577 510.17333984 7.53857422 C513.06573323 8.01073033 515.9616869 8.43605846 518.86328125 8.84765625 C519.78818359 8.97970459 520.71308594 9.11175293 521.66601562 9.24780273 C523.34547911 9.48717276 525.02514449 9.72513382 526.70507812 9.96118164 C531.27691861 10.63620162 535.55437214 11.70663703 540 13 C543.05168527 13.66101486 546.11969208 14.23163833 549.1875 14.8125 C564.60941677 17.83147695 579.638359 21.73628969 594.58203125 26.58984375 C599.5568981 28.19932783 604.57761822 29.59401252 609.62890625 30.9453125 C613.23206836 32.0726054 616.66983304 33.44238696 620.16381836 34.86669922 C623.22633765 36.09044154 626.31050008 37.23800966 629.40625 38.375 C645.99309325 44.49467894 662.07356688 51.29210567 678 59 C679.14033691 59.55034912 679.14033691 59.55034912 680.30371094 60.11181641 C684.1782597 61.99224696 688.02326445 63.92420762 691.8515625 65.89697266 C694.34308224 67.17614154 696.84383718 68.43653455 699.34375 69.69921875 C712.66682483 76.48244866 725.43771028 83.89756185 738 92 C738.59312988 92.3810791 739.18625977 92.7621582 739.79736328 93.15478516 C743.24019635 95.37737359 746.62863906 97.67069608 750 100 C750.63325195 100.43634766 751.26650391 100.87269531 751.91894531 101.32226562 C761.89180807 108.21328534 771.57062406 115.38328431 781 123 C781.93070313 123.74765625 782.86140625 124.4953125 783.8203125 125.265625 C786.56464082 127.48989111 789.28716613 129.73742901 792 132 C792.51997559 132.4336084 793.03995117 132.8672168 793.57568359 133.31396484 C810.72984437 147.67405753 827.96470153 163.01019192 842.4140625 180.13671875 C844.30191407 182.35471185 846.27702792 184.48242155 848.25 186.625 C852.79802765 191.66553826 856.96692095 196.94878466 861.12109375 202.3125 C863.01776232 204.75781307 864.94547275 207.17151105 866.91015625 209.5625 C874.32964738 218.61194716 881.00854293 228.04171848 887.50537109 237.77197266 C888.83835445 239.7590367 890.18899904 241.73184017 891.55078125 243.69921875 C916.68834605 280.24623494 935.85166069 321.06325031 950 363 C950.40162354 364.15741699 950.80324707 365.31483398 951.21704102 366.50732422 C954.58950359 376.34995754 957.36424351 386.29594368 959.9375 396.375 C960.15310577 397.21638519 960.36871155 398.05777039 960.59085083 398.9246521 C967.0596527 424.31300546 971.61650276 449.8929459 974 476 C974.10296387 477.0430127 974.20592773 478.08602539 974.31201172 479.16064453 C979.6776698 535.0296057 977.93952554 594.70741033 964.61621094 649.4140625 C963.97816419 652.09163427 963.39326558 654.77653785 962.8203125 657.46875 C954.10146073 698.12681258 938.59981223 736.93106563 920 774 C919.46020508 775.07685059 918.92041016 776.15370117 918.36425781 777.26318359 C912.15398077 789.57785881 905.58743343 801.48407308 898 813 C897.41734375 813.89299805 896.8346875 814.78599609 896.234375 815.70605469 C884.65872595 833.42832632 872.68700644 850.82887496 859 867 C858.14261334 868.03073806 857.28587495 869.0620156 856.4296875 870.09375 C850.37151233 877.36268758 844.07509743 884.37125181 837.60644531 891.27587891 C835.92171371 893.08402094 834.25285324 894.90589723 832.5859375 896.73046875 C825.55811089 904.39345195 818.31018819 911.64093767 810.5703125 918.58251953 C809.00211522 919.99809065 807.45185536 921.43091515 805.90625 922.87109375 C799.48180706 928.85122749 792.88160428 934.54926464 786 940 C785.05326416 940.75555176 785.05326416 940.75555176 784.08740234 941.52636719 C758.63859479 961.79681235 731.55910193 979.43292859 703 995 C701.62255615 995.75361816 701.62255615 995.75361816 700.21728516 996.52246094 C664.5079369 1015.94056399 626.77280404 1030.06225405 588 1042 C586.88173828 1042.34546875 585.76347656 1042.6909375 584.61132812 1043.046875 C548.5110041 1054.0505965 510.47716402 1060.23473484 473 1064 C472.05445893 1064.09586985 471.10891785 1064.19173971 470.13472402 1064.29051471 C448.49322134 1066.39686209 426.87878196 1066.27595799 405.1600548 1066.23213124 C399.70649102 1066.22338173 394.25293102 1066.22642491 388.79936218 1066.22793579 C379.38219873 1066.22897747 369.96506329 1066.22277654 360.54790688 1066.21146011 C346.93278319 1066.19510983 333.31767286 1066.18998743 319.70254042 1066.18748413 C297.60547828 1066.18312186 275.50843103 1066.16985289 253.41137695 1066.15087891 C231.96378655 1066.1324819 210.51620024 1066.11832105 189.06860352 1066.10986328 C188.40580579 1066.10960023 187.74300806 1066.10933718 187.06012555 1066.10906615 C179.74253818 1066.10616706 172.42495077 1066.10338349 165.10736334 1066.10064721 C110.07156234 1066.0799605 55.0357889 1066.04311564 0 1066 C0 1026.4 0 986.8 0 946 C20.20593384 945.970271 20.20593384 945.970271 40.82006836 945.93994141 C83.98779693 945.87504734 127.15550406 945.80050905 170.32320612 945.71994839 C177.03553896 945.70742384 183.74787197 945.69499528 190.46020508 945.68261719 C191.46207817 945.6807672 191.46207817 945.6807672 192.48419112 945.67887984 C214.08675253 945.63903501 235.68931805 945.60551351 257.29189492 945.57531309 C280.14527578 945.54332939 302.99863529 945.50405151 325.85199076 945.45720994 C339.52530605 945.42941656 353.19860544 945.40734414 366.87194128 945.39273749 C376.2655462 945.38214398 385.65912024 945.36426792 395.05270182 945.34083296 C400.46124421 945.32754965 405.86974358 945.31731582 411.27830315 945.31578636 C442.6903469 945.33435581 442.6903469 945.33435581 474 943 C475.19201423 942.8658646 475.19201423 942.8658646 476.40810955 942.7290194 C481.05729025 942.1947147 485.68458419 941.56955385 490.3125 940.875 C491.003367 940.77250946 491.69423401 940.67001892 492.40603638 940.56442261 C515.36325254 937.12344576 538.69253314 932.56209729 560.61572266 924.82910156 C563.35091519 923.87797379 566.10181633 922.98218801 568.85546875 922.0859375 C606.52537268 909.65660514 643.07853237 892.16206935 676 870 C677.05767578 869.29738037 677.05767578 869.29738037 678.13671875 868.58056641 C707.574966 849.00713079 735.97042208 825.95815298 759 799 C759.89238203 797.98232945 760.78568697 796.96546778 761.6796875 795.94921875 C777.85603836 777.46540232 791.75202866 757.27577045 804 736 C804.63156006 734.91525391 804.63156006 734.91525391 805.27587891 733.80859375 C819.77062191 708.78809543 829.37755078 682.47388688 838 655 C838.34466309 653.90510254 838.68932617 652.81020508 839.04443359 651.68212891 C842.7321641 639.81094031 845.41204254 627.89852049 847.52783203 615.65380859 C847.99313666 613.03857524 848.50414413 610.43623896 849.02734375 607.83203125 C857.8135241 562.92351227 857.50483866 515.01955615 850 470 C849.82017578 468.88842529 849.82017578 468.88842529 849.63671875 467.75439453 C847.84764171 456.74223212 845.58925253 445.85081449 843 435 C842.79536133 434.13665039 842.59072266 433.27330078 842.37988281 432.38378906 C831.39412297 386.65084265 811.89366163 342.61653977 785 304 C784.44046631 303.19369141 784.44046631 303.19369141 783.86962891 302.37109375 C765.6260612 276.16601817 744.47002344 250.63683215 720 230 C719.11699219 229.22785156 718.23398438 228.45570313 717.32421875 227.66015625 C696.05410136 209.16273816 672.60862319 193.66687823 648 180 C647.24960449 179.58153809 646.49920898 179.16307617 645.72607422 178.73193359 C618.13534202 163.46200342 588.26010528 151.81073949 558 143 C556.58702661 142.58014314 555.17427579 142.15953673 553.76171875 141.73828125 C550.86124115 140.87545227 547.95759613 140.02481338 545.05078125 139.18359375 C542.59995078 138.47346519 540.16532123 137.73772937 537.73046875 136.97265625 C526.65496878 133.57216366 515.28686935 131.65982754 503.90917969 129.55517578 C501.5971169 129.11395131 499.30245603 128.6432762 497.0078125 128.12109375 C473.08642094 122.74581635 447.86945796 121.85483164 423.41615295 121.84178162 C421.58004429 121.83720538 419.74393665 121.83220384 417.90783018 121.82681805 C412.90222705 121.8133483 407.89663064 121.80585131 402.89101422 121.79939139 C397.47813141 121.79133787 392.06526236 121.77765739 386.65238953 121.76467896 C377.28741452 121.74298599 367.92243808 121.72481549 358.55745125 121.70907402 C345.01744405 121.68630967 331.47745214 121.65817615 317.93745797 121.62875474 C295.96685701 121.58115904 273.99624977 121.53787327 252.02563477 121.49731445 C230.69001763 121.45791861 209.35440657 121.41648266 188.01879883 121.37231445 C186.70248764 121.36959018 185.38617644 121.36686591 184.02997703 121.36405908 C177.42607698 121.35037893 170.82217702 121.33665879 164.2182771 121.32291877 C109.47886234 121.2090801 54.73943636 121.10304003 0 121 C0 81.07 0 41.14 0 0 Z " fill="#FEFEFE" transform="translate(968,876)"/>
<path d="M0 0 C125.07 0 250.14 0 379 0 C379 30.36 379 60.72 379 92 C253.93 92 128.86 92 0 92 C0 61.64 0 31.28 0 0 Z " fill="#FDFEFE" transform="translate(968,1512)"/>
<path d="M0 0 C125.07 0 250.14 0 379 0 C379 30.36 379 60.72 379 92 C253.93 92 128.86 92 0 92 C0 61.64 0 31.28 0 0 Z " fill="#FDFEFE" transform="translate(968,1214)"/>
<path d="M0 0 C62.7 0 125.4 0 190 0 C190 30.36 190 60.72 190 92 C127.3 92 64.6 92 0 92 C0 61.64 0 31.28 0 0 Z " fill="#FDFDFE" transform="translate(968,1661)"/>
<path d="M0 0 C62.7 0 125.4 0 190 0 C190 30.36 190 60.72 190 92 C127.3 92 64.6 92 0 92 C0 61.64 0 31.28 0 0 Z " fill="#FDFDFE" transform="translate(968,1363)"/>
<path d="M0 0 C62.7 0 125.4 0 190 0 C190 30.36 190 60.72 190 92 C127.3 92 64.6 92 0 92 C0 61.64 0 31.28 0 0 Z " fill="#FDFDFE" transform="translate(968,1065)"/>
</svg>
